<?xml version="1.0"?>
<svg xmlns="http://www.w3.org/2000/svg" viewBox="0 0 512 512" width="512" height="512"><g id="_13-rating" data-name="13-rating"><g id="linear_color" data-name="linear color"><path d="M472,12H40A36.04,36.04,0,0,0,4,48V296a36.04,36.04,0,0,0,36,36H80.367l68.977,45.985c7.574,5.4,18.949-.7,18.656-9.985V332h62.706a51.889,51.889,0,0,0,78.588,0H472a36.04,36.04,0,0,0,36-36V48A36.04,36.04,0,0,0,472,12ZM232.3,278a27.009,27.009,0,0,1-10.328-8H270c9.875,0,17.029,3.039,21.74,9.264A16.655,16.655,0,0,0,286,278ZM270,326a28.04,28.04,0,0,1-27.71-24h41.763l12.709,4.237A28.049,28.049,0,0,1,270,326Zm214-30a12.013,12.013,0,0,1-12,12H321.025A51.985,51.985,0,0,0,322,298a61.435,61.435,0,0,0-6.267-25.367C307.146,255.458,290.9,246,270,246H206a12,12,0,0,0-12,12c0,20.465,12.762,33.263,24.008,39.665,0,.112-.008.224-.008.335a51.985,51.985,0,0,0,.975,10H156a12,12,0,0,0-12,12v25.578L90.656,310.015A12,12,0,0,0,84,308H40a12.013,12.013,0,0,1-12-12V48A12.013,12.013,0,0,1,40,36H472a12.013,12.013,0,0,1,12,12Z"/><path d="M327.021,109.655a14.61,14.61,0,0,0-12.709-10.082l-32.266-2.7L269.5,66.973a14.643,14.643,0,0,0-27,.006l-12.542,29.89-32.266,2.7a14.647,14.647,0,0,0-8.349,25.682l24.525,21.182-7.406,31.572c-3.188,12.292,11.164,22.706,21.852,15.867L256,177.08l27.692,16.8c10.7,6.836,25.034-3.586,21.848-15.872l-7.406-31.57,24.523-21.18A14.613,14.613,0,0,0,327.021,109.655Zm-62.394-33.39,0,0-.009.02Zm12.321,56.756a12,12,0,0,0-3.839,11.823l3.978,16.957-14.863-9.016a12,12,0,0,0-12.448,0L234.913,161.8l3.978-16.957a12,12,0,0,0-3.84-11.823l-13.189-11.39,17.346-1.453a12,12,0,0,0,10.063-7.315L256,96.825l6.729,16.038a12,12,0,0,0,10.064,7.315l17.345,1.453Z"/><path d="M446.578,149.573l-32.265-2.7-12.542-29.887a14.643,14.643,0,0,0-27-.009l0,.006-12.542,29.89-32.265,2.7a14.648,14.648,0,0,0-8.35,25.682l24.526,21.182-7.406,31.572a14.644,14.644,0,0,0,21.852,15.867l27.689-16.8,27.692,16.8c10.69,6.834,25.038-3.583,21.848-15.872l-7.407-31.57,24.53-21.185a14.648,14.648,0,0,0-8.352-25.679Zm-37.363,33.448a12,12,0,0,0-3.839,11.823l3.978,16.957-14.864-9.016a12,12,0,0,0-12.447,0L367.179,211.8l3.977-16.958a12,12,0,0,0-3.839-11.822l-13.188-11.391,17.345-1.453a12,12,0,0,0,10.063-7.315l6.73-16.038L395,162.863a12,12,0,0,0,10.064,7.315l17.344,1.453Z"/><path d="M182.045,149.573l-32.266-2.7-12.541-29.887a14.643,14.643,0,0,0-27.008,0l-12.542,29.89-32.266,2.7a14.648,14.648,0,0,0-8.348,25.682L81.6,196.437l-7.407,31.572c-3.185,12.286,11.154,22.707,21.853,15.867l27.688-16.8,27.69,16.8c10.69,6.839,25.044-3.583,21.851-15.87l-7.406-31.57,24.526-21.182a14.648,14.648,0,0,0-8.349-25.682Zm-66.939-23.308,0,.01-.006-.013Zm29.576,56.756a12,12,0,0,0-3.839,11.823l3.978,16.957-14.864-9.016a12,12,0,0,0-12.448,0L102.646,211.8l3.978-16.957a12,12,0,0,0-3.839-11.823L89.6,171.631l17.345-1.453A12,12,0,0,0,117,162.863l6.729-16.037,6.73,16.037a12,12,0,0,0,10.063,7.315l17.345,1.453Z"/><path d="M202,386v72a12,12,0,0,0,12,12H326a12,12,0,0,0,12-12V386a36.04,36.04,0,0,0-36-36H238A36.04,36.04,0,0,0,202,386Zm100-12a12.013,12.013,0,0,1,12,12v60H226V386a12.013,12.013,0,0,1,12-12Z"/></g></g></svg>
