<?xml version="1.0" standalone="no"?>
<!DOCTYPE svg PUBLIC "-//W3C//DTD SVG 20010904//EN"
 "http://www.w3.org/TR/2001/REC-SVG-20010904/DTD/svg10.dtd">
<svg version="1.0" xmlns="http://www.w3.org/2000/svg"
 width="1374.000000pt" height="1374.000000pt" viewBox="0 0 1374.000000 1374.000000"
 preserveAspectRatio="xMidYMid meet">

<g transform="translate(0.000000,1374.000000) scale(0.100000,-0.100000)"
fill="#FFFF" stroke="none">
<path d="M6615 13734 c-803 -39 -1498 -182 -2215 -456 -1257 -480 -2348 -1332
-3152 -2463 -296 -417 -599 -985 -786 -1475 -245 -643 -388 -1281 -443 -1985
-16 -203 -16 -772 0 -975 92 -1161 436 -2207 1044 -3175 470 -749 1102 -1415
1843 -1943 1006 -716 2216 -1149 3474 -1243 91 -7 311 -13 490 -13 339 0 545
12 815 45 1546 190 2951 873 4040 1964 757 759 1307 1644 1650 2657 185 546
298 1106 346 1713 16 205 16 763 0 970 -82 1051 -372 2007 -884 2915 -596
1055 -1519 1976 -2594 2583 -850 481 -1831 781 -2818 862 -175 15 -668 26
-810 19z m2972 -1968 c177 -65 295 -120 424 -197 530 -313 838 -780 948 -1436
40 -240 44 -322 51 -1193 8 -912 7 -895 60 -1102 96 -373 316 -626 639 -737
133 -46 336 -81 466 -81 l45 0 0 -159 0 -158 -102 -7 c-214 -14 -353 -46 -505
-116 -296 -137 -495 -420 -567 -805 -8 -44 -18 -93 -22 -110 -3 -16 -10 -419
-14 -895 -6 -721 -10 -887 -24 -1000 -103 -824 -447 -1343 -1106 -1671 -141
-70 -410 -174 -420 -162 -11 11 -93 214 -89 217 2 2 58 25 124 51 612 241
1010 678 1164 1277 74 289 81 391 81 1222 0 401 5 763 10 831 43 499 206 849
504 1084 118 93 289 180 436 221 36 10 58 20 50 23 -8 3 -53 17 -100 31 -191
57 -367 164 -504 306 -204 212 -317 470 -372 850 -13 95 -18 256 -24 945 -8
890 -10 930 -65 1179 -109 500 -344 874 -715 1138 -111 79 -334 194 -470 242
-108 39 -102 26 -64 151 31 101 32 105 38 105 3 0 58 -20 123 -44z m-5273 -83
c20 -59 35 -107 33 -108 -1 0 -42 -16 -92 -34 -283 -103 -550 -272 -735 -468
-227 -239 -387 -557 -464 -922 -56 -262 -58 -302 -66 -1211 -8 -922 -7 -918
-70 -1157 -120 -462 -412 -775 -843 -904 -50 -15 -85 -29 -77 -32 226 -74 341
-128 460 -218 275 -208 434 -501 506 -934 14 -84 18 -228 24 -920 8 -879 11
-940 65 -1191 89 -422 293 -780 585 -1026 188 -158 404 -284 635 -369 50 -18
92 -34 94 -36 2 -1 -18 -52 -44 -113 -43 -98 -51 -109 -69 -104 -12 3 -73 26
-136 49 -815 305 -1250 863 -1366 1756 -13 101 -18 282 -24 984 -8 916 -9 934
-61 1138 -134 525 -470 792 -1037 824 l-112 6 0 157 0 157 38 7 c20 3 62 6 94
6 31 0 107 9 170 20 247 42 437 137 584 292 155 163 247 368 300 668 15 82 18
213 24 975 5 557 12 911 19 965 59 442 164 747 356 1035 189 283 446 500 790
666 112 55 345 148 372 149 6 0 27 -48 47 -107z m1456 -3153 l0 -1240 -90 0
-90 0 0 110 c0 61 -2 110 -4 110 -2 0 -36 -33 -77 -72 -133 -130 -292 -186
-499 -175 -163 8 -278 57 -389 165 -108 106 -184 251 -222 425 -29 131 -37
405 -15 545 39 258 156 467 322 577 158 105 400 124 604 46 70 -27 177 -107
229 -173 l41 -51 0 487 0 486 95 0 95 0 0 -1240z m1370 510 c180 -60 307 -175
390 -351 52 -112 71 -207 77 -381 l6 -158 -622 0 -621 0 0 -57 c0 -128 40
-276 102 -381 50 -85 151 -182 233 -224 95 -48 161 -63 280 -62 169 2 291 51
407 164 l66 66 56 -41 c30 -22 55 -46 56 -54 0 -7 -37 -50 -82 -95 -140 -138
-275 -194 -493 -203 -161 -6 -244 9 -370 70 -164 79 -270 188 -355 362 -72
149 -82 198 -87 425 -4 167 -2 209 15 290 61 297 261 543 509 623 102 34 118
36 253 32 85 -2 132 -9 180 -25z m1099 -727 c145 -401 266 -731 270 -735 4 -5
125 323 270 727 l264 735 99 0 c90 0 99 -2 94 -17 -3 -10 -149 -403 -325 -873
l-319 -855 -80 -3 -79 -3 -327 871 c-179 478 -326 872 -326 875 0 3 44 5 98 5
l99 0 262 -727z m-2469 -3083 l0 -1240 -90 0 -90 0 0 110 c0 61 -1 110 -3 110
-1 0 -36 -33 -77 -73 -127 -123 -263 -176 -455 -179 -176 -2 -306 46 -426 159
-166 157 -246 369 -256 683 -12 333 53 573 202 753 160 194 444 263 706 173
88 -31 166 -84 239 -163 l60 -66 0 480 c0 264 3 483 7 486 3 4 46 7 95 7 l88
0 0 -1240z m1276 524 c68 -7 177 -43 241 -80 63 -37 151 -127 185 -190 61
-112 61 -116 68 -749 6 -554 7 -584 28 -659 12 -44 22 -81 22 -83 0 -1 -47 -3
-104 -3 -91 0 -105 2 -110 18 -11 38 -26 138 -26 175 l0 39 -75 -70 c-54 -51
-101 -83 -168 -115 -123 -61 -204 -79 -347 -79 -189 0 -307 42 -422 150 -79
75 -120 151 -139 256 -56 323 180 572 592 626 41 5 181 10 312 10 l239 0 -4
164 -3 163 -35 69 c-64 124 -177 189 -352 201 -176 12 -318 -32 -417 -129 -60
-59 -89 -110 -98 -173 l-6 -45 -99 0 -100 0 7 43 c26 171 138 309 320 396 149
72 272 88 491 65z m1946 -10 c178 -43 298 -168 350 -364 21 -83 22 -100 25
-737 l4 -653 -95 0 -96 0 0 568 c0 597 -6 704 -40 808 -28 82 -98 162 -170
193 -127 55 -317 45 -449 -23 -82 -43 -192 -166 -242 -271 l-29 -60 0 -607 0
-608 -100 0 -100 0 0 870 0 870 95 0 94 0 3 -146 3 -146 42 60 c44 63 118 131
192 177 136 84 338 112 513 69z"/>
<path d="M4950 8882 c-85 -22 -143 -58 -207 -124 -121 -128 -173 -311 -174
-603 0 -245 34 -388 123 -521 58 -86 128 -144 214 -177 50 -19 78 -22 189 -21
111 0 139 4 190 24 119 46 205 120 269 231 l26 46 0 412 0 413 -32 62 c-43 80
-147 185 -218 219 -113 55 -261 70 -380 39z"/>
<path d="M6768 8881 c-171 -55 -314 -225 -368 -436 -11 -43 -20 -89 -20 -102
l0 -23 520 0 520 0 0 35 c0 69 -31 191 -69 270 -64 134 -155 216 -282 256 -81
25 -222 25 -301 0z"/>
<path d="M4990 5589 c-30 -5 -87 -25 -127 -44 -214 -105 -317 -393 -291 -810
20 -314 152 -529 363 -591 75 -22 218 -22 305 0 126 33 236 115 303 227 l37
64 0 414 0 414 -36 64 c-71 127 -194 224 -319 251 -76 17 -174 22 -235 11z"/>
<path d="M6808 4835 c-222 -37 -371 -139 -409 -278 -6 -23 -9 -76 -7 -117 6
-99 41 -166 118 -227 72 -56 125 -74 241 -80 236 -13 441 88 560 275 l29 46 0
198 0 198 -227 -1 c-135 -1 -259 -6 -305 -14z"/>
</g>
</svg>
