<svg id="Layer_1" enable-background="new 0 0 510 510" height="512" viewBox="0 0 510 510" width="512" xmlns="http://www.w3.org/2000/svg"><g><path d="m420 0v60c0 41.355 33.645 75 75 75h15v-135z"/><path d="m90 60v-60h-90v135h15c41.355 0 75-33.645 75-75z"/><path d="m420 240v60h90v-135h-15c-41.355 0-75 33.645-75 75z"/><path d="m90 240c0-41.355-33.645-75-75-75h-15v135h90z"/><path d="m474.009 410.011c10.208-8.249 16.741-20.864 16.741-35.011 0-24.853-20.147-45-45-45s-45 20.147-45 45c0 14.313 6.69 27.056 17.106 35.298-20.841 9.405-35.356 30.351-35.356 54.702 0-24.536-14.734-45.619-35.832-54.917 10.26-8.248 16.832-20.895 16.832-35.083 0-24.853-20.147-45-45-45s-45 20.147-45 45c0 14.272 6.651 26.982 17.015 35.227-20.927 9.369-35.515 30.361-35.515 54.773 0-24.475-14.661-45.512-35.674-54.846 10.311-8.246 16.924-20.924 16.924-35.154 0-24.853-20.148-45-45-45s-45 20.147-45 45c0 14.23 6.612 26.908 16.923 35.154-21.012 9.334-35.673 30.371-35.673 54.846 0-24.412-14.588-45.404-35.515-54.773 10.364-8.245 17.015-20.955 17.015-35.227 0-24.853-20.147-45-45-45s-45 20.147-45 45c0 14.188 6.572 26.835 16.832 35.083-21.098 9.298-35.832 30.381-35.832 54.917v45h127.5 127.5 127.5 127.5v-45c0-24.598-14.809-45.727-35.991-54.989z"/><path d="m69.037 150c30.511 18.39 50.963 51.854 50.963 90v60h270v-60c0-38.146 20.452-71.61 50.963-90-30.511-18.39-50.963-51.854-50.963-90v-60h-270v60c0 38.146-20.452 71.61-50.963 90zm140.963-69.271 138.541 69.271-138.541 69.27z"/><path d="m240 129.27v41.46l41.459-20.73z"/></g></svg>