<svg id="Layer_1" enable-background="new 0 0 510 510" height="512" viewBox="0 0 510 510" width="512" xmlns="http://www.w3.org/2000/svg"><g><path d="m0 0v300h510v-300zm480 133.49c-34.192-6.968-60-37.271-60-73.49v-30h60zm-450-103.49h60v30c0 36.22-25.808 66.522-60 73.49zm0 136.51c34.192 6.968 60 37.27 60 73.49v30h-60zm39.037-16.51c30.511-18.39 50.963-51.853 50.963-90v-30h270v30c0 38.147 20.452 71.61 50.963 90-30.511 18.39-50.963 51.852-50.963 90v30h-270v-30c0-38.148-20.452-71.61-50.963-90zm410.963 120h-60v-30c0-36.22 25.808-66.523 60-73.49z"/><path d="m472.382 400.022c4.808-7.16 7.618-15.768 7.618-25.022 0-24.814-20.186-45-45-45s-45 20.186-45 45c0 9.254 2.81 17.862 7.618 25.022-8.823 5.096-16.527 11.92-22.618 20.03-6.091-8.11-13.795-14.935-22.618-20.03 4.808-7.16 7.618-15.768 7.618-25.022 0-24.814-20.186-45-45-45s-45 20.186-45 45c0 9.254 2.81 17.862 7.618 25.022-8.823 5.096-16.527 11.92-22.618 20.03-6.091-8.11-13.795-14.935-22.618-20.03 4.807-7.16 7.618-15.768 7.618-25.022 0-24.814-20.186-45-45-45s-45 20.186-45 45c0 9.254 2.811 17.862 7.618 25.022-8.823 5.096-16.527 11.92-22.618 20.03-6.091-8.11-13.795-14.935-22.618-20.03 4.807-7.16 7.618-15.768 7.618-25.022 0-24.814-20.187-45-45-45s-45 20.186-45 45c0 9.254 2.811 17.862 7.618 25.022-22.46 12.971-37.618 37.23-37.618 64.978v45h120 30 90 30 90 30 120v-45c0-27.748-15.158-52.007-37.618-64.978zm-412.382-25.022c0-8.272 6.729-15 15-15s15 6.728 15 15-6.729 15-15 15-15-6.728-15-15zm60 105h-90v-15c0-24.814 20.187-45 45-45s45 20.186 45 45zm60-105c0-8.272 6.729-15 15-15s15 6.728 15 15-6.729 15-15 15-15-6.728-15-15zm60 105h-90v-15c0-24.814 20.186-45 45-45s45 20.186 45 45zm60-105c0-8.272 6.728-15 15-15s15 6.728 15 15-6.728 15-15 15-15-6.728-15-15zm60 105h-90v-15c0-24.814 20.186-45 45-45s45 20.186 45 45zm60-105c0-8.272 6.728-15 15-15s15 6.728 15 15-6.728 15-15 15-15-6.728-15-15zm60 105h-90v-15c0-24.814 20.186-45 45-45s45 20.186 45 45z"/><path d="m210 80.729v138.541l138.541-69.27zm30 48.541 41.459 20.73-41.459 20.73z"/></g></svg>