<svg xmlns="http://www.w3.org/2000/svg" xmlns:xlink="http://www.w3.org/1999/xlink" width="225.725" height="50.292" viewBox="0 0 225.725 50.292">
  <defs>
    <linearGradient id="linear-gradient" x1="0.5" x2="0.5" y2="1" gradientUnits="objectBoundingBox">
      <stop offset="0" stop-color="#fc0909"/>
      <stop offset="1" stop-color="#7e0505"/>
    </linearGradient>
    <filter id="Pfad_10" x="0" y="0" width="225.725" height="50.292" filterUnits="userSpaceOnUse">
      <feOffset dx="1" dy="1" input="SourceAlpha"/>
      <feGaussianBlur stdDeviation="0.5" result="blur"/>
      <feFlood flood-opacity="0.561"/>
      <feComposite operator="in" in2="blur"/>
      <feComposite in="SourceGraphic"/>
    </filter>
  </defs>
  <g id="Gruppe_8" data-name="Gruppe 8" transform="translate(-103.419 -235.61)">
    <g id="Gruppe_6" data-name="Gruppe 6">
      <g id="Gruppe_5" data-name="Gruppe 5">
        <g id="Gruppe_4" data-name="Gruppe 4">
          <g id="Gruppe_7" data-name="Gruppe 7">
            <g transform="matrix(1, 0, 0, 1, 103.42, 235.61)" filter="url(#Pfad_10)">
              <path id="Pfad_10-2" data-name="Pfad 10" d="M2.419,4.928H5.7l3.4-.605L8.909-18h8.378v-5.9H8.909V-35.4H19.588v-5.9H2.419Zm20.3-1.609,16.878-.87V-4L29.2-3.2V-41.3h-6.49Zm20.3-.87H49.5V-41.3h-6.49Zm8.615,0,6.5-.631L63.543-14.4h.118L68.735,1.819h6.136L67.732-21.122,74.871-41.3H68.735L64.251-27.966h-.118L59.767-41.3H52.923l7.139,20.178ZM78.3,1.337l10.2-.176c6.49,0,9.853-4.584,9.853-10.956v-3.54c0-4.366-1.357-7.434-4.838-8.614v-.118c2.891-1.18,4.189-3.835,4.189-8.083V-31.8c0-6.372-2.891-9.5-9.617-9.5H78.293Zm6.487-25.822V-35.4H87.91c2.3,0,3.3,1.3,3.3,4.248v2.3c0,3.3-1.475,4.366-3.894,4.366Zm0,18.585V-18.585h2.891c2.95,0,4.189,1.18,4.189,5.015v3.6C91.863-6.9,90.683-5.9,88.5-5.9Zm26.98,7.062c6.372,0,9.482-4.348,9.482-10.956V-41.3h-6.254V-9.322c0,2.95-1.163,5.191-3.228,5.191s-3.38-2.241-3.38-5.191V-41.3h-6.49V-9.794C101.893-3.186,105.391,1.162,111.763,1.162Zm14.084,0h9.912c6.49,0,9.676-4.761,9.676-11.369V-31.093c0-6.608-3.186-10.207-9.676-10.207h-9.912Zm6.49-7.062V-35.4h3.3c2.065,0,3.3,1.062,3.3,4.012V-9.912c0,2.95-1.239,4.012-3.3,4.012ZM149.8,1.563h9.912c6.49,0,9.676-5.162,9.676-11.77V-31.093c0-6.608-3.186-10.207-9.676-10.207H149.8Zm6.49-7.463V-35.4h3.3c2.065,0,3.3,1.062,3.3,4.012V-9.912c0,2.95-1.239,4.012-3.3,4.012Zm17.464,8.24h6.49V-41.3h-6.49Zm11.328.428,17.235.974V-2.553l-10.745-.3V-18.585h8.909v-5.9h-8.909V-35.4h11.21v-5.9h-17.7ZM215.35,5.4c6.372,0,9.794-4.25,9.794-10.976,0-5.133-2.006-12.775-7.434-17.554-4.248-3.717-5.6-5.9-5.6-8.909,0-2.832,1.18-3.953,3.245-3.953s3.245,1.121,3.245,4.071V-29.8h6.136v-1.711c0-6.608-3.127-10.384-9.44-10.384s-9.676,3.776-9.676,10.266c0,4.72,1.77,8.083,7.2,12.862,4.248,3.717,5.841,10.238,5.841,13.66,0,3.068-1.3,4.13-3.363,4.13s-3.363-1.062-3.363-4.012V-7.816h-6.136v2.36C205.792,1.152,208.978,5.4,215.35,5.4Z" transform="translate(-1.92 42.39)" fill="url(#linear-gradient)"/>
            </g>
          </g>
        </g>
      </g>
    </g>
  </g>
</svg>
